<?xml version="1.0" encoding="utf-8"?>
<!-- Generator: Adobe Illustrator 18.1.1, SVG Export Plug-In . SVG Version: 6.00 Build 0)  -->
<svg version="1.1" id="Capa_1" xmlns="http://www.w3.org/2000/svg" xmlns:xlink="http://www.w3.org/1999/xlink" x="0px" y="0px"
	 viewBox="0 0 640 480" enable-background="new 0 0 640 480" xml:space="preserve">
<path fill="#FFFFFF" d="M504.2,461l-17-328.7c-0.5-9.1-8-16.3-17.2-16.3h-50.2V99.8C419.8,44.8,375,0,320,0
	c-55,0-99.8,44.8-99.8,99.8V116h-50.2c-9.2,0-16.7,7.2-17.2,16.3l-17.1,329.6c-0.2,4.7,1.5,9.3,4.7,12.7c3.2,3.4,7.8,5.4,12.5,5.4
	h334.2c0,0,0,0,0,0c9.5,0,17.2-7.7,17.2-17.2C504.3,462.2,504.3,461.6,504.2,461z M244.7,185.6c-10.2,0-18.4-8.3-18.4-18.4
	s8.3-18.4,18.4-18.4c10.2,0,18.4,8.3,18.4,18.4S254.9,185.6,244.7,185.6z M368.6,116h-97.3V99.8c0-26.8,21.8-48.6,48.6-48.6
	c26.8,0,48.6,21.8,48.6,48.6V116z M395.3,185.6c-10.2,0-18.4-8.3-18.4-18.4s8.3-18.4,18.4-18.4c10.2,0,18.4,8.3,18.4,18.4
	S405.5,185.6,395.3,185.6z"/>
</svg>
